<?xml version="1.0" standalone="no"?>
<!DOCTYPE svg PUBLIC "-//W3C//DTD SVG 20010904//EN"
 "http://www.w3.org/TR/2001/REC-SVG-20010904/DTD/svg10.dtd">
<svg version="1.0" xmlns="http://www.w3.org/2000/svg"
 width="20" height="20" viewBox="0 0 636.000000 563.000000"
 preserveAspectRatio="xMidYMid meet">

<g transform="translate(0.000000,563.000000) scale(0.100000,-0.100000)"
fill="white" stroke="none">
<path d="M4622 5131 c-8 -24 -19 -74 -26 -110 -7 -36 -20 -88 -29 -116 -89
-282 -142 -436 -173 -502 -144 -311 -214 -448 -295 -569 -122 -185 -152 -227
-253 -359 -92 -119 -297 -338 -438 -466 -103 -95 -315 -268 -338 -277 -8 -3
-19 -10 -25 -14 -5 -4 -24 -19 -41 -33 -18 -14 -35 -25 -39 -25 -4 0 -28 -15
-54 -33 -106 -76 -351 -209 -531 -289 -25 -11 -53 -24 -62 -29 -10 -5 -27 -9
-38 -9 -11 0 -20 -4 -20 -10 0 -5 -8 -10 -18 -10 -10 0 -22 -3 -25 -7 -7 -7
-104 -42 -192 -69 -27 -9 -58 -20 -67 -25 -10 -5 -29 -9 -43 -9 -14 0 -25 -4
-25 -10 0 -5 -13 -10 -29 -10 -17 0 -33 -4 -36 -10 -3 -5 -22 -10 -41 -10 -59
0 -37 -18 28 -22 35 -3 683 -5 1441 -7 1117 -1 1378 1 1382 11 3 7 4 699 3
1538 -3 1286 -5 1518 -16 1481z"/>
</g>
</svg>
