<?xml version="1.0" standalone="no"?>
<!DOCTYPE svg PUBLIC "-//W3C//DTD SVG 20010904//EN"
 "http://www.w3.org/TR/2001/REC-SVG-20010904/DTD/svg10.dtd">
<svg version="1.0" xmlns="http://www.w3.org/2000/svg"
 width="20" height="20" viewBox="0 0 636.000000 563.000000"
 preserveAspectRatio="xMidYMid meet">

<g transform="translate(0.000000,648.000000) scale(0.100000,-0.100000)"
fill="white" stroke="none">
<path d="M2100 3291 c0 -1297 2 -1449 15 -1455 22 -8 3041 -5 3071 3 19 5 4
11 -63 25 -149 32 -481 130 -594 174 -107 43 -156 65 -314 140 -99 47 -182 88
-185 92 -3 3 -36 23 -75 45 -38 21 -88 50 -110 65 -22 15 -62 41 -90 58 -27
17 -55 35 -60 40 -6 5 -24 17 -40 28 -17 10 -36 24 -43 31 -7 7 -16 13 -20 13
-6 0 -47 32 -92 73 -8 7 -31 24 -50 38 -19 13 -57 45 -85 70 -27 26 -63 57
-78 70 -48 41 -239 233 -299 300 -80 90 -90 102 -118 139 -45 59 -82 105 -88
110 -4 3 -11 12 -17 21 -39 61 -149 225 -154 229 -3 3 -12 17 -20 33 -8 15
-18 27 -23 27 -4 0 -8 7 -8 16 0 9 -8 28 -19 42 -10 15 -35 60 -56 100 -21 39
-42 72 -47 72 -4 0 -8 8 -8 18 0 9 -8 31 -18 47 -10 17 -24 46 -32 65 -7 19
-29 66 -47 104 -18 38 -33 73 -33 78 0 4 -9 27 -19 51 -38 86 -151 437 -151
471 0 9 -7 16 -15 16 -13 0 -15 -168 -15 -1449z"/>
</g>
</svg>
